<svg width="1320" height="540" viewBox="0 0 1320 540" fill="none" xmlns="http://www.w3.org/2000/svg">
  <g>
    <ellipse cx="660" cy="270" rx="520" ry="208" fill="#F6861F"/>
    <path d="M238 272C238 174 322 94 421 94H894C996 94 1082 176 1082 280C1082 364 1022 434 942 448L411 450C316 450 238 372 238 272Z" fill="#121316"/>
    <path d="M318 272C318 206 370 152 436 152H880C948 152 1002 208 1002 276C1002 338 960 390 901 402L439 402C372 402 318 348 318 272Z" fill="#5D5D62"/>
    <path d="M530 148H788L842 198V348L788 392H530L478 348V198L530 148Z" fill="#2F3135"/>
    <path d="M558 188H760L798 218V322L760 352H558L522 322V218L558 188Z" fill="#7F8084"/>
    <path d="M640 188H678V352H640V188Z" fill="#2B2C30"/>
    <path d="M448 188L504 208L458 258L430 232L448 188Z" fill="#111216"/>
    <path d="M448 352L504 332L458 282L430 308L448 352Z" fill="#111216"/>
    <path d="M874 188L818 208L864 258L892 232L874 188Z" fill="#111216"/>
    <path d="M874 352L818 332L864 282L892 308L874 352Z" fill="#111216"/>
    <path d="M246 270C246 206 288 152 348 132L314 182C300 206 292 236 292 270C292 306 300 336 316 360L350 410C290 390 246 336 246 270Z" fill="#222327"/>
    <path d="M1074 272C1074 208 1032 154 972 134L1006 184C1020 208 1028 238 1028 272C1028 308 1020 338 1004 362L970 412C1030 392 1074 338 1074 272Z" fill="#222327"/>
    <path d="M378 110H520L470 134H350L378 110Z" fill="#DB781D"/>
    <path d="M944 110H802L850 134H972L944 110Z" fill="#DB781D"/>
    <path d="M536 422H786L754 440H566L536 422Z" fill="#DB781D"/>
    <ellipse cx="660" cy="270" rx="494" ry="194" stroke="#232429" stroke-width="4"/>
  </g>
</svg>
